<svg width="16" height="16" viewBox="0 0 16 16" fill="none" xmlns="http://www.w3.org/2000/svg">
<path d="M13.5263 7.99964C13.5263 8.12178 13.4778 8.23891 13.3914 8.32528C13.305 8.41165 13.1879 8.46017 13.0657 8.46017H7.99996C7.87782 8.46017 7.76068 8.41165 7.67432 8.32528C7.58795 8.23891 7.53943 8.12178 7.53943 7.99964C7.53943 7.8775 7.58795 7.76036 7.67432 7.674C7.76068 7.58763 7.87782 7.53911 7.99996 7.53911H13.0657C13.1879 7.53911 13.305 7.58763 13.3914 7.674C13.4778 7.76036 13.5263 7.8775 13.5263 7.99964ZM7.99996 4.77595H13.0657C13.1879 4.77595 13.305 4.72744 13.3914 4.64107C13.4778 4.5547 13.5263 4.43757 13.5263 4.31543C13.5263 4.19329 13.4778 4.07615 13.3914 3.98979C13.305 3.90342 13.1879 3.8549 13.0657 3.8549H7.99996C7.87782 3.8549 7.76068 3.90342 7.67432 3.98979C7.58795 4.07615 7.53943 4.19329 7.53943 4.31543C7.53943 4.43757 7.58795 4.5547 7.67432 4.64107C7.76068 4.72744 7.87782 4.77595 7.99996 4.77595ZM13.0657 11.2233H7.99996C7.87782 11.2233 7.76068 11.2718 7.67432 11.3582C7.58795 11.4446 7.53943 11.5617 7.53943 11.6838C7.53943 11.806 7.58795 11.9231 7.67432 12.0095C7.76068 12.0959 7.87782 12.1444 7.99996 12.1444H13.0657C13.1879 12.1444 13.305 12.0959 13.3914 12.0095C13.4778 11.9231 13.5263 11.806 13.5263 11.6838C13.5263 11.5617 13.4778 11.4446 13.3914 11.3582C13.305 11.2718 13.1879 11.2233 13.0657 11.2233ZM5.37151 3.06855L3.85522 4.58541L3.25999 3.98961C3.17358 3.90319 3.05638 3.85465 2.93417 3.85465C2.81196 3.85465 2.69476 3.90319 2.60835 3.98961C2.52194 4.07602 2.47339 4.19322 2.47339 4.31543C2.47339 4.43764 2.52194 4.55484 2.60835 4.64125L3.5294 5.5623C3.57217 5.60512 3.62296 5.63909 3.67887 5.66227C3.73478 5.68544 3.7947 5.69737 3.85522 5.69737C3.91574 5.69737 3.97567 5.68544 4.03158 5.66227C4.08748 5.63909 4.13828 5.60512 4.18105 5.5623L6.02315 3.7202C6.10956 3.63378 6.15811 3.51658 6.15811 3.39438C6.15811 3.27217 6.10956 3.15497 6.02315 3.06855C5.93674 2.98214 5.81954 2.93359 5.69733 2.93359C5.57512 2.93359 5.45792 2.98214 5.37151 3.06855ZM5.37151 6.75276L3.85522 8.26962L3.25999 7.67382C3.17358 7.5874 3.05638 7.53886 2.93417 7.53886C2.81196 7.53886 2.69476 7.5874 2.60835 7.67382C2.52194 7.76023 2.47339 7.87743 2.47339 7.99964C2.47339 8.06015 2.48531 8.12007 2.50846 8.17597C2.53162 8.23188 2.56556 8.28267 2.60835 8.32546L3.5294 9.24651C3.57217 9.28933 3.62296 9.3233 3.67887 9.34648C3.73478 9.36965 3.7947 9.38158 3.85522 9.38158C3.91574 9.38158 3.97567 9.36965 4.03158 9.34648C4.08748 9.3233 4.13828 9.28933 4.18105 9.24651L6.02315 7.40441C6.10956 7.318 6.15811 7.20079 6.15811 7.07859C6.15811 6.95638 6.10956 6.83918 6.02315 6.75276C5.93674 6.66635 5.81954 6.6178 5.69733 6.6178C5.57512 6.6178 5.45792 6.66635 5.37151 6.75276ZM5.37151 10.437L3.85522 11.9538L3.25999 11.358C3.21721 11.3152 3.16641 11.2813 3.1105 11.2581C3.0546 11.235 2.99468 11.2231 2.93417 11.2231C2.87366 11.2231 2.81374 11.235 2.75784 11.2581C2.70193 11.2813 2.65114 11.3152 2.60835 11.358C2.56556 11.4008 2.53162 11.4516 2.50846 11.5075C2.48531 11.5634 2.47339 11.6233 2.47339 11.6838C2.47339 11.7444 2.48531 11.8043 2.50846 11.8602C2.53162 11.9161 2.56556 11.9669 2.60835 12.0097L3.5294 12.9307C3.57217 12.9735 3.62296 13.0075 3.67887 13.0307C3.73478 13.0539 3.7947 13.0658 3.85522 13.0658C3.91574 13.0658 3.97567 13.0539 4.03158 13.0307C4.08748 13.0075 4.13828 12.9735 4.18105 12.9307L6.02315 11.0886C6.10956 11.0022 6.15811 10.885 6.15811 10.7628C6.15811 10.6406 6.10956 10.5234 6.02315 10.437C5.93674 10.3506 5.81954 10.302 5.69733 10.302C5.57512 10.302 5.45792 10.3506 5.37151 10.437Z" fill="#44403C"/>
</svg>
