<svg width="25" height="25" viewBox="0 0 25 25" fill="none" xmlns="http://www.w3.org/2000/svg">
<path d="M4.5 7.69727H20.5H4.5Z" fill="#FAFAF9"/>
<path d="M4.5 7.69727H20.5" stroke="#FAFAF9" stroke-width="1.5" stroke-linecap="round" stroke-linejoin="round"/>
<path d="M5.5 7.69727L6.5 19.6973C6.5 20.2277 6.71071 20.7364 7.08579 21.1115C7.46086 21.4866 7.96957 21.6973 8.5 21.6973H16.5C17.0304 21.6973 17.5391 21.4866 17.9142 21.1115C18.2893 20.7364 18.5 20.2277 18.5 19.6973L19.5 7.69727" stroke="#FAFAF9" stroke-width="1.5" stroke-linecap="round" stroke-linejoin="round"/>
<path d="M9.5 7.69727V4.69727C9.5 4.43205 9.60536 4.1777 9.79289 3.99016C9.98043 3.80262 10.2348 3.69727 10.5 3.69727H14.5C14.7652 3.69727 15.0196 3.80262 15.2071 3.99016C15.3946 4.1777 15.5 4.43205 15.5 4.69727V7.69727" stroke="#FAFAF9" stroke-width="1.5" stroke-linecap="round" stroke-linejoin="round"/>
<path d="M10.5 12.6973L14.5 16.6973M14.5 12.6973L10.5 16.6973" stroke="#FAFAF9" stroke-width="1.5" stroke-linecap="round" stroke-linejoin="round"/>
</svg>
