<svg width="24" height="25" viewBox="0 0 24 25" fill="none" xmlns="http://www.w3.org/2000/svg">
<path d="M14 3.69727V7.69727C14 7.96248 14.1054 8.21684 14.2929 8.40437C14.4804 8.59191 14.7348 8.69727 15 8.69727H19" stroke="#B7862B" stroke-width="1.5" stroke-linecap="round" stroke-linejoin="round"/>
<path d="M17 21.6973H7C6.46957 21.6973 5.96086 21.4866 5.58579 21.1115C5.21071 20.7364 5 20.2277 5 19.6973V5.69727C5 5.16683 5.21071 4.65812 5.58579 4.28305C5.96086 3.90798 6.46957 3.69727 7 3.69727H14L19 8.69727V19.6973C19 20.2277 18.7893 20.7364 18.4142 21.1115C18.0391 21.4866 17.5304 21.6973 17 21.6973Z" stroke="#B7862B" stroke-width="1.5" stroke-linecap="round" stroke-linejoin="round"/>
<path d="M12 17.6973V11.6973" stroke="#B7862B" stroke-width="1.5" stroke-linecap="round" stroke-linejoin="round"/>
<path d="M9.5 15.1973L12 17.6973L14.5 15.1973" stroke="#B7862B" stroke-width="1.5" stroke-linecap="round" stroke-linejoin="round"/>
</svg>
