<svg width="25" height="24" viewBox="0 0 25 24" fill="none" xmlns="http://www.w3.org/2000/svg">
<path d="M8.5 9H16.5" stroke="#44403C" stroke-width="1.5" stroke-linecap="round" stroke-linejoin="round"/>
<path d="M8.5 13H14.5" stroke="#44403C" stroke-width="1.5" stroke-linecap="round" stroke-linejoin="round"/>
<path d="M15.5 18L12.5 21L9.5 18H6.5C5.70435 18 4.94129 17.6839 4.37868 17.1213C3.81607 16.5587 3.5 15.7956 3.5 15V7C3.5 6.20435 3.81607 5.44129 4.37868 4.87868C4.94129 4.31607 5.70435 4 6.5 4H18.5C19.2956 4 20.0587 4.31607 20.6213 4.87868C21.1839 5.44129 21.5 6.20435 21.5 7V12.5" stroke="#44403C" stroke-width="1.5" stroke-linecap="round" stroke-linejoin="round"/>
<path d="M19.5 16V19" stroke="#44403C" stroke-width="1.5" stroke-linecap="round" stroke-linejoin="round"/>
<path d="M19.5 22V22.01" stroke="#44403C" stroke-width="1.5" stroke-linecap="round" stroke-linejoin="round"/>
</svg>
